<?xml version="1.0" encoding="UTF-8"?>
<svg version="1.1" xmlns="http://www.w3.org/2000/svg" width="192" height="192">
<path d="M0 0 C11.54049459 10.71469891 16.59327222 24.6048631 17.28125 40.1015625 C17.60543168 52.59719057 17.57584445 65.55719096 9.88671875 76.0546875 C6.48765807 79.55930907 2.41995942 81.97286034 -2 84 C-2.66 84 -3.32 84 -4 84 C-3.95359375 85.15757812 -3.9071875 86.31515625 -3.859375 87.5078125 C-3.82183752 89.04684906 -3.78543949 90.5859137 -3.75 92.125 C-3.71648437 92.88554687 -3.68296875 93.64609375 -3.6484375 94.4296875 C-3.55610257 99.78511322 -4.44370377 102.74947283 -8 107 C-11.81917396 109.50974289 -15.46841399 109.14972198 -19.83984375 108.55859375 C-22.89195905 107.76934874 -24.7974205 106.2025795 -27 104 C-27.495 104.639375 -27.99 105.27875 -28.5 105.9375 C-31.862088 108.7112226 -34.70345136 109.08575945 -39 109 C-42.59446483 108.01969141 -45.12539738 106.3422688 -48 104 C-48.474375 104.639375 -48.94875 105.27875 -49.4375 105.9375 C-53.07577658 108.86586896 -56.39520404 109.19986094 -61 109 C-64.52619424 107.82460192 -66.33803655 106.82784554 -68.65234375 103.93359375 C-70.49086181 99.93148631 -70.32944766 96.52964247 -70.1875 92.1875 C-70.16719727 91.00510742 -70.16719727 91.00510742 -70.14648438 89.79882812 C-70.11133456 87.86558831 -70.05753361 85.93270318 -70 84 C-71.38638672 83.56494141 -71.38638672 83.56494141 -72.80078125 83.12109375 C-79.73098981 80.69255913 -84.73961376 76.52077247 -88 70 C-90.86028111 61.89453982 -91.51182431 54.23600396 -91.4375 45.6875 C-91.43210205 44.50067627 -91.4267041 43.31385254 -91.42114258 42.09106445 C-91.19301003 28.94323558 -88.22834143 18.20111205 -80.9375 7.125 C-80.43089844 6.34382813 -79.92429687 5.56265625 -79.40234375 4.7578125 C-78.93957031 4.17773438 -78.47679687 3.59765625 -78 3 C-77.34 3 -76.68 3 -76 3 C-76 2.34 -76 1.68 -76 1 C-54.74026176 -17.30827783 -21.56114622 -18.30663358 0 0 Z " fill="#CBD5DC" transform="translate(133,48)"/>
<path d="M0 0 C0.556875 0.721875 1.11375 1.44375 1.6875 2.1875 C4.01874143 5.02279363 5.00296183 5.50445782 8.1875 6.9375 C11.1653833 8.71861133 11.89982235 9.71096892 13.0546875 13.04296875 C13.84512646 18.61860359 13.92807044 22.41638775 11.03125 27.359375 C8.80911942 30.0737497 6.53546549 32.57821035 4 35 C4.3196875 35.69609375 4.639375 36.3921875 4.96875 37.109375 C7.10551802 43.09880052 7.31503504 49.97583425 4.76171875 55.84765625 C3.29957533 58.13701729 1.97853307 60.13700171 0 62 C-0.99 62 -1.98 62 -3 62 C-3 62.66 -3 63.32 -3 64 C-6.09916296 65.54958148 -9.35071849 65.26681073 -12.75 65.3125 C-13.80574219 65.35600586 -13.80574219 65.35600586 -14.8828125 65.40039062 C-20.0127801 65.46236979 -22.95739434 64.42604473 -27 61 C-27 60.34 -27 59.68 -27 59 C-28.485 58.505 -28.485 58.505 -30 58 C-30.37125 56.741875 -30.7425 55.48375 -31.125 54.1875 C-32.06909061 51.31395644 -32.6169742 50.24784022 -35.19140625 48.58203125 C-37.43830872 47.60802188 -39.66728689 46.74333835 -42 46 C-42 45.34 -42 44.68 -42 44 C-42.99 43.67 -43.98 43.34 -45 43 C-48.36771238 38.86904439 -48.39802421 34.92396102 -48.25 29.8125 C-48.24484375 29.08869141 -48.2396875 28.36488281 -48.234375 27.61914062 C-48.15536613 22.31073226 -48.15536613 22.31073226 -47 20 C-46.34 20 -45.68 20 -45 20 C-45 19.01 -45 18.02 -45 17 C-41.54890592 13.33488458 -37.65993059 11.22875369 -32.68359375 10.54296875 C-27.27957628 10.47534168 -22.95655776 10.72365495 -18 13 C-17.56131592 12.60619141 -17.12263184 12.21238281 -16.6706543 11.80664062 C-14.68301614 10.03003955 -12.68547282 8.26496773 -10.6875 6.5 C-9.99720703 5.87996094 -9.30691406 5.25992188 -8.59570312 4.62109375 C-7.92861328 4.03457031 -7.26152344 3.44804687 -6.57421875 2.84375 C-5.65515747 2.02680664 -5.65515747 2.02680664 -4.7175293 1.19335938 C-3 0 -3 0 0 0 Z " fill="#AAB8C2" transform="translate(48,127)"/>
<path d="M0 0 C4.04948725 0.54242554 6.03848678 2.61446044 8.9375 5.375 C12.12934959 8.40405046 15.14581971 10.86261916 19 13 C19.99 12.34 20.98 11.68 22 11 C29.67618613 10.10790269 35.73064972 10.334437 42 15 C42 15.66 42 16.32 42 17 C42.99 17.33 43.98 17.66 45 18 C49.16062298 23.5474973 48.77906123 30.39028053 48 37 C46.95075228 39.78890952 45.79550398 41.58729153 44 44 C43.34 44 42.68 44 42 44 C42 44.66 42 45.32 42 46 C41.39671875 46.18433594 40.7934375 46.36867187 40.171875 46.55859375 C35.09310418 48.39264254 35.09310418 48.39264254 31.51171875 52.26953125 C30.5495641 54.49123381 29.70725656 56.68534217 29 59 C28.34 59 27.68 59 27 59 C26.67 59.99 26.34 60.98 26 62 C21.86904439 65.36771238 17.92396102 65.39802421 12.8125 65.25 C11.72678711 65.24226563 11.72678711 65.24226563 10.61914062 65.234375 C5.31073226 65.15536613 5.31073226 65.15536613 3 64 C3 63.34 3 62.68 3 62 C2.01 62 1.02 62 0 62 C-3.66511542 58.54890592 -5.77124631 54.65993059 -6.45703125 49.68359375 C-6.52465832 44.27957628 -6.27634505 39.95655776 -4 35 C-4.66128906 34.36835938 -5.32257813 33.73671875 -6.00390625 33.0859375 C-10.91470934 27.88273545 -13.76607547 24.08894923 -13.6875 16.75 C-13.12303114 12.65984072 -12.62373968 10.6464015 -9.7421875 7.66015625 C-7.0625 5.8125 -7.0625 5.8125 -4.34765625 4.33203125 C-1.72688658 3.07776579 -1.72688658 3.07776579 0 0 Z " fill="#AAB8C2" transform="translate(144,127)"/>
<path d="M0 0 C1.08571289 0.00773438 1.08571289 0.00773438 2.19335938 0.015625 C7.50176774 0.09463387 7.50176774 0.09463387 9.8125 1.25 C9.8125 1.91 9.8125 2.57 9.8125 3.25 C10.8025 3.25 11.7925 3.25 12.8125 3.25 C16.47761542 6.70109408 18.58374631 10.59006941 19.26953125 15.56640625 C19.33715832 20.97042372 19.08884505 25.29344224 16.8125 30.25 C17.40160156 30.84167969 17.99070313 31.43335937 18.59765625 32.04296875 C19.34917969 32.83316406 20.10070313 33.62335937 20.875 34.4375 C21.62910156 35.21480469 22.38320313 35.99210937 23.16015625 36.79296875 C24.8125 39.25 24.8125 39.25 24.72265625 41.9140625 C23.61629571 44.75356295 21.95648791 45.85470771 19.57421875 47.66015625 C15.32300905 51.49661379 11.6211441 56.82406771 9.8125 62.25 C5.63011166 61.70230629 3.21381455 59.35111111 0.0625 56.6875 C-0.92234375 55.86121094 -1.9071875 55.03492188 -2.921875 54.18359375 C-3.66953125 53.54550781 -4.4171875 52.90742187 -5.1875 52.25 C-5.88359375 52.5696875 -6.5796875 52.889375 -7.296875 53.21875 C-13.28630052 55.35551802 -20.16333425 55.56503504 -26.03515625 53.01171875 C-28.32451729 51.54957533 -30.32450171 50.22853307 -32.1875 48.25 C-32.1875 47.26 -32.1875 46.27 -32.1875 45.25 C-32.8475 45.25 -33.5075 45.25 -34.1875 45.25 C-35.73708148 42.15083704 -35.45431073 38.89928151 -35.5 35.5 C-35.52900391 34.79617187 -35.55800781 34.09234375 -35.58789062 33.3671875 C-35.64986979 28.2372199 -34.61354473 25.29260566 -31.1875 21.25 C-30.5275 21.25 -29.8675 21.25 -29.1875 21.25 C-28.8575 20.26 -28.5275 19.27 -28.1875 18.25 C-26.929375 17.87875 -25.67125 17.5075 -24.375 17.125 C-21.50145644 16.18090939 -20.43534022 15.6330258 -18.76953125 13.05859375 C-17.79552188 10.81169128 -16.93083835 8.58271311 -16.1875 6.25 C-15.5275 6.25 -14.8675 6.25 -14.1875 6.25 C-13.8575 5.26 -13.5275 4.27 -13.1875 3.25 C-9.05654439 -0.11771238 -5.11146102 -0.14802421 0 0 Z " fill="#AAB8C2" transform="translate(35.1875,-0.25)"/>
<path d="M0 0 C4.38027086 1.66323328 7.07365465 3.99118369 9.04296875 8.26171875 C9.63252278 9.81927415 10.2160108 11.37914113 10.79296875 12.94140625 C13.01107982 16.72439826 16.97048219 17.76875845 21 19 C21 19.66 21 20.32 21 21 C21.66 21 22.32 21 23 21 C27.68355403 27.29352572 28.00467659 33.30069962 27 41 C25.94628653 43.78416533 24.79382044 45.58955379 23 48 C22.34 48 21.68 48 21 48 C20.67 48.99 20.34 49.98 20 51 C14.48275325 55.13793506 7.58666446 54.65526248 1 54 C-1.3984375 52.98046875 -1.3984375 52.98046875 -3 52 C-3.83144531 52.721875 -4.66289062 53.44375 -5.51953125 54.1875 C-6.61685777 55.12538592 -7.71453222 56.06286487 -8.8125 57 C-9.35970703 57.47695313 -9.90691406 57.95390625 -10.47070312 58.4453125 C-14.66015625 62 -14.66015625 62 -18 62 C-18.7734375 60.2675 -18.7734375 60.2675 -19.5625 58.5 C-22.72296735 52.16781809 -27.25036843 47.09787338 -33 43 C-32.48118887 38.8275894 -31.28848726 36.74583179 -28.4375 33.6875 C-27.79683594 32.99011719 -27.15617188 32.29273438 -26.49609375 31.57421875 C-25.75552734 30.79498047 -25.75552734 30.79498047 -25 30 C-25.47953125 28.95585938 -25.47953125 28.95585938 -25.96875 27.890625 C-28.10551802 21.90119948 -28.31503504 15.02416575 -25.76171875 9.15234375 C-24.29957533 6.86298271 -22.97853307 4.86299829 -21 3 C-20.01 3 -19.02 3 -18 3 C-18 2.34 -18 1.68 -18 1 C-13.06072005 -1.46963998 -5.41480067 -0.74331711 0 0 Z " fill="#AAB8C2" transform="translate(165,0)"/>
<path d="M0 0 C4.8253537 2.59139365 8.32363321 5.68408303 10.375 10.8125 C11.05069027 17.11309236 11.38491674 23.59960823 7.375 28.8125 C2.71621747 31.7164048 -1.30976928 32.27788203 -6.6875 32.1875 C-7.72874023 32.20490234 -7.72874023 32.20490234 -8.79101562 32.22265625 C-14.36334363 32.19090509 -17.48547197 30.91465636 -21.4140625 27.0546875 C-23.09767597 23.93728707 -23.02274508 21.46298794 -23 17.9375 C-23.00773437 16.74382812 -23.01546875 15.55015625 -23.0234375 14.3203125 C-22.51347442 9.83063754 -21.18715097 6.52517073 -18.125 3.16796875 C-12.13978169 -1.49239655 -7.31186516 -2.39526617 0 0 Z " fill="#2B3136" transform="translate(125.625,67.1875)"/>
<path d="M0 0 C4.83136253 2.86335798 7.9464962 5.5894886 9.75390625 11.01171875 C10.43239389 15.78426247 10.81465027 20.15317571 8.3671875 24.44140625 C4.55272488 28.95918627 1.4095767 31.63015045 -4.56640625 32.25390625 C-8.80041957 32.46876663 -11.65831676 32.27788192 -15.55859375 30.51171875 C-20.15368941 26.23721116 -23.47049805 21.954633 -23.87109375 15.51171875 C-23.50406685 9.76824374 -20.95836478 5.40094013 -16.671875 1.625 C-11.53739807 -1.78601614 -5.68412562 -2.50101527 0 0 Z " fill="#2C3236" transform="translate(79.24609375,66.98828125)"/>
<path d="M0 0 C2.69960061 1.40127574 3.90673761 2.64507981 6 5 C6.5 7.6875 6.5 7.6875 6 10 C4 12 4 12 1.125 12.125 C0.09375 12.08375 -0.9375 12.0425 -2 12 C-4.37536547 12 -6.75153255 12.0300613 -9.125 12.125 C-12 12 -12 12 -14 10 C-14.5 7.6875 -14.5 7.6875 -14 5 C-9.90328941 0.39120058 -6.17149355 -1.53062836 0 0 Z " fill="#2F3539" transform="translate(100,110)"/>
</svg>
